<mxfile host="Electron" modified="2025-06-20T10:58:12.410Z" agent="Mozilla/5.0 (X11; Linux x86_64) AppleWebKit/537.36 (KHTML, like Gecko) draw.io/22.1.2 Chrome/114.0.5735.289 Electron/25.9.4 Safari/537.36" etag="BI0G5TFnXGoaE0M9o1By" version="22.1.2" type="device" pages="5">
  <diagram name="ipo" id="SvhErIKEAkfI6aPl8mTb">
    <mxGraphModel dx="1070" dy="704" grid="1" gridSize="10" guides="1" tooltips="1" connect="1" arrows="1" fold="1" page="1" pageScale="1" pageWidth="1169" pageHeight="827" math="0" shadow="0">
      <root>
        <mxCell id="GFsZlMj1VPnXTf82XeGM-0" />
        <mxCell id="GFsZlMj1VPnXTf82XeGM-1" parent="GFsZlMj1VPnXTf82XeGM-0" />
        <mxCell id="cjWCAMrzAAs_4FGMjF_7-46" value="&lt;b&gt;&lt;font color=&quot;#ffffff&quot;&gt;PROCESS&lt;/font&gt;&lt;/b&gt;" style="swimlane;fontStyle=0;childLayout=stackLayout;horizontal=1;startSize=26;fillColor=#29425F;horizontalStack=0;resizeParent=1;resizeParentMax=0;resizeLast=0;collapsible=1;marginBottom=0;whiteSpace=wrap;html=1;strokeColor=none;" parent="GFsZlMj1VPnXTf82XeGM-1" vertex="1">
          <mxGeometry x="240" y="40" width="440" height="160" as="geometry" />
        </mxCell>
        <mxCell id="cjWCAMrzAAs_4FGMjF_7-47" value="&amp;nbsp;" style="text;strokeColor=#FAEBD7;fillColor=#FAEBD7;align=left;verticalAlign=top;spacingLeft=4;spacingRight=4;overflow=hidden;rotatable=0;points=[[0,0.5],[1,0.5]];portConstraint=eastwest;whiteSpace=wrap;html=1;" parent="cjWCAMrzAAs_4FGMjF_7-46" vertex="1">
          <mxGeometry y="26" width="440" height="134" as="geometry" />
        </mxCell>
        <mxCell id="GFsZlMj1VPnXTf82XeGM-2" style="edgeStyle=orthogonalEdgeStyle;rounded=0;orthogonalLoop=1;jettySize=auto;html=1;entryX=0;entryY=0.5;entryDx=0;entryDy=0;" parent="GFsZlMj1VPnXTf82XeGM-1" source="GFsZlMj1VPnXTf82XeGM-3" target="GFsZlMj1VPnXTf82XeGM-5" edge="1">
          <mxGeometry relative="1" as="geometry" />
        </mxCell>
        <mxCell id="GFsZlMj1VPnXTf82XeGM-3" value="Enrol" style="whiteSpace=wrap;html=1;aspect=fixed;fillColor=#478AAD;strokeColor=#29425F;fontColor=#FFFFFF;" parent="GFsZlMj1VPnXTf82XeGM-1" vertex="1">
          <mxGeometry x="260" y="90" width="80" height="80" as="geometry" />
        </mxCell>
        <mxCell id="GFsZlMj1VPnXTf82XeGM-4" style="edgeStyle=orthogonalEdgeStyle;rounded=0;orthogonalLoop=1;jettySize=auto;html=1;" parent="GFsZlMj1VPnXTf82XeGM-1" source="GFsZlMj1VPnXTf82XeGM-5" target="GFsZlMj1VPnXTf82XeGM-7" edge="1">
          <mxGeometry relative="1" as="geometry" />
        </mxCell>
        <mxCell id="GFsZlMj1VPnXTf82XeGM-5" value="Teach" style="whiteSpace=wrap;html=1;aspect=fixed;fillColor=#478AAD;strokeColor=#29425F;fontColor=#FFFFFF;" parent="GFsZlMj1VPnXTf82XeGM-1" vertex="1">
          <mxGeometry x="370" y="90" width="80" height="80" as="geometry" />
        </mxCell>
        <mxCell id="GFsZlMj1VPnXTf82XeGM-6" style="edgeStyle=orthogonalEdgeStyle;rounded=0;orthogonalLoop=1;jettySize=auto;html=1;" parent="GFsZlMj1VPnXTf82XeGM-1" source="GFsZlMj1VPnXTf82XeGM-7" target="GFsZlMj1VPnXTf82XeGM-8" edge="1">
          <mxGeometry relative="1" as="geometry" />
        </mxCell>
        <mxCell id="GFsZlMj1VPnXTf82XeGM-7" value="Assess" style="whiteSpace=wrap;html=1;aspect=fixed;fillColor=#478AAD;strokeColor=#29425F;fontColor=#FFFFFF;" parent="GFsZlMj1VPnXTf82XeGM-1" vertex="1">
          <mxGeometry x="480" y="90" width="80" height="80" as="geometry" />
        </mxCell>
        <mxCell id="cjWCAMrzAAs_4FGMjF_7-50" style="edgeStyle=orthogonalEdgeStyle;rounded=0;orthogonalLoop=1;jettySize=auto;html=1;entryX=0;entryY=0.481;entryDx=0;entryDy=0;entryPerimeter=0;" parent="GFsZlMj1VPnXTf82XeGM-1" source="GFsZlMj1VPnXTf82XeGM-8" target="cjWCAMrzAAs_4FGMjF_7-32" edge="1">
          <mxGeometry relative="1" as="geometry">
            <mxPoint x="690" y="130" as="targetPoint" />
          </mxGeometry>
        </mxCell>
        <mxCell id="GFsZlMj1VPnXTf82XeGM-8" value="Graduate" style="whiteSpace=wrap;html=1;aspect=fixed;fillColor=#478AAD;strokeColor=#29425F;fontColor=#FFFFFF;" parent="GFsZlMj1VPnXTf82XeGM-1" vertex="1">
          <mxGeometry x="580" y="90" width="80" height="80" as="geometry" />
        </mxCell>
        <mxCell id="cjWCAMrzAAs_4FGMjF_7-25" value="&lt;b&gt;&lt;font color=&quot;#ffffff&quot;&gt;INPUT&lt;/font&gt;&lt;/b&gt;" style="swimlane;fontStyle=0;childLayout=stackLayout;horizontal=1;startSize=26;fillColor=#29425F;horizontalStack=0;resizeParent=1;resizeParentMax=0;resizeLast=0;collapsible=1;marginBottom=0;whiteSpace=wrap;html=1;strokeColor=none;" parent="GFsZlMj1VPnXTf82XeGM-1" vertex="1">
          <mxGeometry x="80" y="40" width="140" height="160" as="geometry" />
        </mxCell>
        <mxCell id="cjWCAMrzAAs_4FGMjF_7-26" value="Highschool students" style="text;strokeColor=none;fillColor=#FAEBD7;align=center;verticalAlign=top;spacingLeft=4;spacingRight=4;overflow=hidden;rotatable=0;points=[[0,0.5],[1,0.5]];portConstraint=eastwest;whiteSpace=wrap;html=1;" parent="cjWCAMrzAAs_4FGMjF_7-25" vertex="1">
          <mxGeometry y="26" width="140" height="26" as="geometry" />
        </mxCell>
        <mxCell id="cjWCAMrzAAs_4FGMjF_7-27" value="Mature age students" style="text;strokeColor=none;fillColor=#FAEBD7;align=center;verticalAlign=top;spacingLeft=4;spacingRight=4;overflow=hidden;rotatable=0;points=[[0,0.5],[1,0.5]];portConstraint=eastwest;whiteSpace=wrap;html=1;" parent="cjWCAMrzAAs_4FGMjF_7-25" vertex="1">
          <mxGeometry y="52" width="140" height="26" as="geometry" />
        </mxCell>
        <mxCell id="cjWCAMrzAAs_4FGMjF_7-28" value="Vocational transfers" style="text;strokeColor=none;fillColor=#FAEBD7;align=center;verticalAlign=top;spacingLeft=4;spacingRight=4;overflow=hidden;rotatable=0;points=[[0,0.5],[1,0.5]];portConstraint=eastwest;whiteSpace=wrap;html=1;" parent="cjWCAMrzAAs_4FGMjF_7-25" vertex="1">
          <mxGeometry y="78" width="140" height="26" as="geometry" />
        </mxCell>
        <mxCell id="cjWCAMrzAAs_4FGMjF_7-29" value="International students" style="text;strokeColor=none;fillColor=#FAEBD7;align=center;verticalAlign=top;spacingLeft=4;spacingRight=4;overflow=hidden;rotatable=0;points=[[0,0.5],[1,0.5]];portConstraint=eastwest;whiteSpace=wrap;html=1;" parent="cjWCAMrzAAs_4FGMjF_7-25" vertex="1">
          <mxGeometry y="104" width="140" height="26" as="geometry" />
        </mxCell>
        <mxCell id="cjWCAMrzAAs_4FGMjF_7-30" value="Transfers" style="text;strokeColor=none;fillColor=#FAEBD7;align=center;verticalAlign=top;spacingLeft=4;spacingRight=4;overflow=hidden;rotatable=0;points=[[0,0.5],[1,0.5]];portConstraint=eastwest;whiteSpace=wrap;html=1;" parent="cjWCAMrzAAs_4FGMjF_7-25" vertex="1">
          <mxGeometry y="130" width="140" height="30" as="geometry" />
        </mxCell>
        <mxCell id="cjWCAMrzAAs_4FGMjF_7-31" value="&lt;b&gt;&lt;font color=&quot;#ffffff&quot;&gt;OUTPUT&lt;/font&gt;&lt;/b&gt;" style="swimlane;fontStyle=0;childLayout=stackLayout;horizontal=1;startSize=26;fillColor=#29425F;horizontalStack=0;resizeParent=1;resizeParentMax=0;resizeLast=0;collapsible=1;marginBottom=0;whiteSpace=wrap;html=1;strokeColor=none;" parent="GFsZlMj1VPnXTf82XeGM-1" vertex="1">
          <mxGeometry x="700" y="40" width="70" height="160" as="geometry" />
        </mxCell>
        <mxCell id="cjWCAMrzAAs_4FGMjF_7-32" value="Graduates" style="text;strokeColor=none;fillColor=#FAEBD7;align=left;verticalAlign=middle;spacingLeft=4;spacingRight=4;overflow=hidden;rotatable=0;points=[[0,0.5],[1,0.5]];portConstraint=eastwest;whiteSpace=wrap;html=1;" parent="cjWCAMrzAAs_4FGMjF_7-31" vertex="1">
          <mxGeometry y="26" width="70" height="134" as="geometry" />
        </mxCell>
        <mxCell id="cjWCAMrzAAs_4FGMjF_7-49" style="edgeStyle=orthogonalEdgeStyle;rounded=0;orthogonalLoop=1;jettySize=auto;html=1;entryX=0.045;entryY=0.485;entryDx=0;entryDy=0;entryPerimeter=0;" parent="GFsZlMj1VPnXTf82XeGM-1" source="cjWCAMrzAAs_4FGMjF_7-28" target="cjWCAMrzAAs_4FGMjF_7-47" edge="1">
          <mxGeometry relative="1" as="geometry" />
        </mxCell>
      </root>
    </mxGraphModel>
  </diagram>
  <diagram name="sipo" id="JNnc6WU97CGE8gjLVPeb">
    <mxGraphModel dx="1223" dy="804" grid="1" gridSize="10" guides="1" tooltips="1" connect="1" arrows="1" fold="1" page="1" pageScale="1" pageWidth="1169" pageHeight="827" math="0" shadow="0">
      <root>
        <mxCell id="BcZxuMLzEVU1U0ieZfAo-0" />
        <mxCell id="BcZxuMLzEVU1U0ieZfAo-1" parent="BcZxuMLzEVU1U0ieZfAo-0" />
        <mxCell id="-Lvw7M9ETyzVfNXNMHce-0" value="&lt;b&gt;&lt;font color=&quot;#ffffff&quot;&gt;PROCESS&lt;/font&gt;&lt;/b&gt;" style="swimlane;fontStyle=0;childLayout=stackLayout;horizontal=1;startSize=26;fillColor=#29425F;horizontalStack=0;resizeParent=1;resizeParentMax=0;resizeLast=0;collapsible=1;marginBottom=0;whiteSpace=wrap;html=1;strokeColor=none;" parent="BcZxuMLzEVU1U0ieZfAo-1" vertex="1">
          <mxGeometry x="400" y="40" width="440" height="160" as="geometry" />
        </mxCell>
        <mxCell id="-Lvw7M9ETyzVfNXNMHce-1" value="&amp;nbsp;" style="text;strokeColor=none;fillColor=#FAEBD7;align=left;verticalAlign=top;spacingLeft=4;spacingRight=4;overflow=hidden;rotatable=0;points=[[0,0.5],[1,0.5]];portConstraint=eastwest;whiteSpace=wrap;html=1;" parent="-Lvw7M9ETyzVfNXNMHce-0" vertex="1">
          <mxGeometry y="26" width="440" height="134" as="geometry" />
        </mxCell>
        <mxCell id="-Lvw7M9ETyzVfNXNMHce-2" style="edgeStyle=orthogonalEdgeStyle;rounded=0;orthogonalLoop=1;jettySize=auto;html=1;entryX=0;entryY=0.5;entryDx=0;entryDy=0;" parent="BcZxuMLzEVU1U0ieZfAo-1" source="-Lvw7M9ETyzVfNXNMHce-3" target="-Lvw7M9ETyzVfNXNMHce-5" edge="1">
          <mxGeometry relative="1" as="geometry" />
        </mxCell>
        <mxCell id="-Lvw7M9ETyzVfNXNMHce-3" value="Enrol" style="whiteSpace=wrap;html=1;aspect=fixed;fillColor=#478AAD;strokeColor=#29425F;gradientColor=none;fontColor=#FFFFFF;" parent="BcZxuMLzEVU1U0ieZfAo-1" vertex="1">
          <mxGeometry x="420" y="90" width="80" height="80" as="geometry" />
        </mxCell>
        <mxCell id="-Lvw7M9ETyzVfNXNMHce-4" style="edgeStyle=orthogonalEdgeStyle;rounded=0;orthogonalLoop=1;jettySize=auto;html=1;" parent="BcZxuMLzEVU1U0ieZfAo-1" source="-Lvw7M9ETyzVfNXNMHce-5" target="-Lvw7M9ETyzVfNXNMHce-7" edge="1">
          <mxGeometry relative="1" as="geometry" />
        </mxCell>
        <mxCell id="-Lvw7M9ETyzVfNXNMHce-5" value="Teach" style="whiteSpace=wrap;html=1;aspect=fixed;fillColor=#478AAD;strokeColor=#29425F;gradientColor=none;fontColor=#FFFFFF;" parent="BcZxuMLzEVU1U0ieZfAo-1" vertex="1">
          <mxGeometry x="530" y="90" width="80" height="80" as="geometry" />
        </mxCell>
        <mxCell id="-Lvw7M9ETyzVfNXNMHce-6" style="edgeStyle=orthogonalEdgeStyle;rounded=0;orthogonalLoop=1;jettySize=auto;html=1;" parent="BcZxuMLzEVU1U0ieZfAo-1" source="-Lvw7M9ETyzVfNXNMHce-7" target="-Lvw7M9ETyzVfNXNMHce-9" edge="1">
          <mxGeometry relative="1" as="geometry" />
        </mxCell>
        <mxCell id="-Lvw7M9ETyzVfNXNMHce-7" value="Assess" style="whiteSpace=wrap;html=1;aspect=fixed;fillColor=#478AAD;strokeColor=#29425F;gradientColor=none;fontColor=#FFFFFF;" parent="BcZxuMLzEVU1U0ieZfAo-1" vertex="1">
          <mxGeometry x="640" y="90" width="80" height="80" as="geometry" />
        </mxCell>
        <mxCell id="-Lvw7M9ETyzVfNXNMHce-8" style="edgeStyle=orthogonalEdgeStyle;rounded=0;orthogonalLoop=1;jettySize=auto;html=1;entryX=0;entryY=0.481;entryDx=0;entryDy=0;entryPerimeter=0;" parent="BcZxuMLzEVU1U0ieZfAo-1" source="-Lvw7M9ETyzVfNXNMHce-9" target="-Lvw7M9ETyzVfNXNMHce-17" edge="1">
          <mxGeometry relative="1" as="geometry">
            <mxPoint x="850" y="130" as="targetPoint" />
          </mxGeometry>
        </mxCell>
        <mxCell id="-Lvw7M9ETyzVfNXNMHce-9" value="Graduate" style="whiteSpace=wrap;html=1;aspect=fixed;fillColor=#478AAD;strokeColor=#29425F;gradientColor=none;fontColor=#FFFFFF;" parent="BcZxuMLzEVU1U0ieZfAo-1" vertex="1">
          <mxGeometry x="740" y="90" width="80" height="80" as="geometry" />
        </mxCell>
        <mxCell id="-Lvw7M9ETyzVfNXNMHce-10" value="&lt;b&gt;&lt;font color=&quot;#ffffff&quot;&gt;INPUT&lt;/font&gt;&lt;/b&gt;" style="swimlane;fontStyle=0;childLayout=stackLayout;horizontal=1;startSize=26;fillColor=#29425F;horizontalStack=0;resizeParent=1;resizeParentMax=0;resizeLast=0;collapsible=1;marginBottom=0;whiteSpace=wrap;html=1;strokeColor=none;" parent="BcZxuMLzEVU1U0ieZfAo-1" vertex="1">
          <mxGeometry x="240" y="40" width="140" height="160" as="geometry" />
        </mxCell>
        <mxCell id="-Lvw7M9ETyzVfNXNMHce-11" value="Highschool students" style="text;strokeColor=none;fillColor=#FAEBD7;align=left;verticalAlign=top;spacingLeft=4;spacingRight=4;overflow=hidden;rotatable=0;points=[[0,0.5],[1,0.5]];portConstraint=eastwest;whiteSpace=wrap;html=1;" parent="-Lvw7M9ETyzVfNXNMHce-10" vertex="1">
          <mxGeometry y="26" width="140" height="26" as="geometry" />
        </mxCell>
        <mxCell id="-Lvw7M9ETyzVfNXNMHce-12" value="Mature age students" style="text;strokeColor=none;fillColor=#FAEBD7;align=left;verticalAlign=top;spacingLeft=4;spacingRight=4;overflow=hidden;rotatable=0;points=[[0,0.5],[1,0.5]];portConstraint=eastwest;whiteSpace=wrap;html=1;" parent="-Lvw7M9ETyzVfNXNMHce-10" vertex="1">
          <mxGeometry y="52" width="140" height="26" as="geometry" />
        </mxCell>
        <mxCell id="-Lvw7M9ETyzVfNXNMHce-13" value="Vocational transfers" style="text;strokeColor=none;fillColor=#FAEBD7;align=left;verticalAlign=top;spacingLeft=4;spacingRight=4;overflow=hidden;rotatable=0;points=[[0,0.5],[1,0.5]];portConstraint=eastwest;whiteSpace=wrap;html=1;" parent="-Lvw7M9ETyzVfNXNMHce-10" vertex="1">
          <mxGeometry y="78" width="140" height="26" as="geometry" />
        </mxCell>
        <mxCell id="-Lvw7M9ETyzVfNXNMHce-14" value="International students" style="text;strokeColor=none;fillColor=#FAEBD7;align=left;verticalAlign=top;spacingLeft=4;spacingRight=4;overflow=hidden;rotatable=0;points=[[0,0.5],[1,0.5]];portConstraint=eastwest;whiteSpace=wrap;html=1;" parent="-Lvw7M9ETyzVfNXNMHce-10" vertex="1">
          <mxGeometry y="104" width="140" height="26" as="geometry" />
        </mxCell>
        <mxCell id="-Lvw7M9ETyzVfNXNMHce-15" value="Transfers" style="text;strokeColor=none;fillColor=#FAEBD7;align=left;verticalAlign=top;spacingLeft=4;spacingRight=4;overflow=hidden;rotatable=0;points=[[0,0.5],[1,0.5]];portConstraint=eastwest;whiteSpace=wrap;html=1;" parent="-Lvw7M9ETyzVfNXNMHce-10" vertex="1">
          <mxGeometry y="130" width="140" height="30" as="geometry" />
        </mxCell>
        <mxCell id="-Lvw7M9ETyzVfNXNMHce-16" value="&lt;b&gt;&lt;font color=&quot;#ffffff&quot;&gt;OUTPUT&lt;/font&gt;&lt;/b&gt;" style="swimlane;fontStyle=0;childLayout=stackLayout;horizontal=1;startSize=26;fillColor=#29425F;horizontalStack=0;resizeParent=1;resizeParentMax=0;resizeLast=0;collapsible=1;marginBottom=0;whiteSpace=wrap;html=1;strokeColor=none;" parent="BcZxuMLzEVU1U0ieZfAo-1" vertex="1">
          <mxGeometry x="860" y="40" width="70" height="160" as="geometry" />
        </mxCell>
        <mxCell id="-Lvw7M9ETyzVfNXNMHce-17" value="Graduates" style="text;strokeColor=none;fillColor=#FAEBD7;align=left;verticalAlign=middle;spacingLeft=4;spacingRight=4;overflow=hidden;rotatable=0;points=[[0,0.5],[1,0.5]];portConstraint=eastwest;whiteSpace=wrap;html=1;" parent="-Lvw7M9ETyzVfNXNMHce-16" vertex="1">
          <mxGeometry y="26" width="70" height="134" as="geometry" />
        </mxCell>
        <mxCell id="-Lvw7M9ETyzVfNXNMHce-18" style="edgeStyle=orthogonalEdgeStyle;rounded=0;orthogonalLoop=1;jettySize=auto;html=1;entryX=0.045;entryY=0.485;entryDx=0;entryDy=0;entryPerimeter=0;" parent="BcZxuMLzEVU1U0ieZfAo-1" source="-Lvw7M9ETyzVfNXNMHce-13" target="-Lvw7M9ETyzVfNXNMHce-1" edge="1">
          <mxGeometry relative="1" as="geometry" />
        </mxCell>
        <mxCell id="-Lvw7M9ETyzVfNXNMHce-19" value="&lt;b&gt;&lt;font color=&quot;#ffffff&quot;&gt;SUPPLIER&lt;/font&gt;&lt;/b&gt;" style="swimlane;fontStyle=0;childLayout=stackLayout;horizontal=1;startSize=26;fillColor=#29425F;horizontalStack=0;resizeParent=1;resizeParentMax=0;resizeLast=0;collapsible=1;marginBottom=0;whiteSpace=wrap;html=1;strokeColor=none;" parent="BcZxuMLzEVU1U0ieZfAo-1" vertex="1">
          <mxGeometry x="110" y="40" width="110" height="160" as="geometry" />
        </mxCell>
        <mxCell id="-Lvw7M9ETyzVfNXNMHce-20" value="Highschool" style="text;strokeColor=none;fillColor=#FAEBD7;align=right;verticalAlign=top;spacingLeft=4;spacingRight=4;overflow=hidden;rotatable=0;points=[[0,0.5],[1,0.5]];portConstraint=eastwest;whiteSpace=wrap;html=1;" parent="-Lvw7M9ETyzVfNXNMHce-19" vertex="1">
          <mxGeometry y="26" width="110" height="26" as="geometry" />
        </mxCell>
        <mxCell id="-Lvw7M9ETyzVfNXNMHce-21" value="Bridging programs" style="text;strokeColor=none;fillColor=#FAEBD7;align=right;verticalAlign=top;spacingLeft=4;spacingRight=4;overflow=hidden;rotatable=0;points=[[0,0.5],[1,0.5]];portConstraint=eastwest;whiteSpace=wrap;html=1;" parent="-Lvw7M9ETyzVfNXNMHce-19" vertex="1">
          <mxGeometry y="52" width="110" height="26" as="geometry" />
        </mxCell>
        <mxCell id="-Lvw7M9ETyzVfNXNMHce-22" value="Technical colleges" style="text;strokeColor=none;fillColor=#FAEBD7;align=right;verticalAlign=top;spacingLeft=4;spacingRight=4;overflow=hidden;rotatable=0;points=[[0,0.5],[1,0.5]];portConstraint=eastwest;whiteSpace=wrap;html=1;" parent="-Lvw7M9ETyzVfNXNMHce-19" vertex="1">
          <mxGeometry y="78" width="110" height="26" as="geometry" />
        </mxCell>
        <mxCell id="-Lvw7M9ETyzVfNXNMHce-23" value="Foreign countries" style="text;strokeColor=none;fillColor=#FAEBD7;align=right;verticalAlign=top;spacingLeft=4;spacingRight=4;overflow=hidden;rotatable=0;points=[[0,0.5],[1,0.5]];portConstraint=eastwest;whiteSpace=wrap;html=1;" parent="-Lvw7M9ETyzVfNXNMHce-19" vertex="1">
          <mxGeometry y="104" width="110" height="26" as="geometry" />
        </mxCell>
        <mxCell id="-Lvw7M9ETyzVfNXNMHce-24" value="Other universities" style="text;strokeColor=none;fillColor=#FAEBD7;align=right;verticalAlign=top;spacingLeft=4;spacingRight=4;overflow=hidden;rotatable=0;points=[[0,0.5],[1,0.5]];portConstraint=eastwest;whiteSpace=wrap;html=1;" parent="-Lvw7M9ETyzVfNXNMHce-19" vertex="1">
          <mxGeometry y="130" width="110" height="30" as="geometry" />
        </mxCell>
        <mxCell id="-Lvw7M9ETyzVfNXNMHce-25" style="edgeStyle=orthogonalEdgeStyle;rounded=0;orthogonalLoop=1;jettySize=auto;html=1;" parent="BcZxuMLzEVU1U0ieZfAo-1" source="-Lvw7M9ETyzVfNXNMHce-20" target="-Lvw7M9ETyzVfNXNMHce-11" edge="1">
          <mxGeometry relative="1" as="geometry" />
        </mxCell>
        <mxCell id="-Lvw7M9ETyzVfNXNMHce-26" style="edgeStyle=orthogonalEdgeStyle;rounded=0;orthogonalLoop=1;jettySize=auto;html=1;exitX=1;exitY=0.5;exitDx=0;exitDy=0;" parent="BcZxuMLzEVU1U0ieZfAo-1" source="-Lvw7M9ETyzVfNXNMHce-21" target="-Lvw7M9ETyzVfNXNMHce-12" edge="1">
          <mxGeometry relative="1" as="geometry" />
        </mxCell>
        <mxCell id="-Lvw7M9ETyzVfNXNMHce-27" style="edgeStyle=orthogonalEdgeStyle;rounded=0;orthogonalLoop=1;jettySize=auto;html=1;" parent="BcZxuMLzEVU1U0ieZfAo-1" source="-Lvw7M9ETyzVfNXNMHce-22" target="-Lvw7M9ETyzVfNXNMHce-13" edge="1">
          <mxGeometry relative="1" as="geometry" />
        </mxCell>
        <mxCell id="-Lvw7M9ETyzVfNXNMHce-28" style="edgeStyle=orthogonalEdgeStyle;rounded=0;orthogonalLoop=1;jettySize=auto;html=1;" parent="BcZxuMLzEVU1U0ieZfAo-1" source="-Lvw7M9ETyzVfNXNMHce-23" target="-Lvw7M9ETyzVfNXNMHce-14" edge="1">
          <mxGeometry relative="1" as="geometry" />
        </mxCell>
        <mxCell id="-Lvw7M9ETyzVfNXNMHce-29" style="edgeStyle=orthogonalEdgeStyle;rounded=0;orthogonalLoop=1;jettySize=auto;html=1;" parent="BcZxuMLzEVU1U0ieZfAo-1" source="-Lvw7M9ETyzVfNXNMHce-24" target="-Lvw7M9ETyzVfNXNMHce-15" edge="1">
          <mxGeometry relative="1" as="geometry" />
        </mxCell>
      </root>
    </mxGraphModel>
  </diagram>
  <diagram name="sipoc" id="UAoYfaRVzh20kykBdoW3">
    <mxGraphModel dx="1070" dy="704" grid="1" gridSize="10" guides="1" tooltips="1" connect="1" arrows="1" fold="1" page="1" pageScale="1" pageWidth="1169" pageHeight="827" math="0" shadow="0">
      <root>
        <mxCell id="0" />
        <mxCell id="1" parent="0" />
        <mxCell id="DWLznS8K7uxFLRwKFC4F-1" value="&lt;b&gt;&lt;font color=&quot;#ffffff&quot;&gt;PROCESS&lt;/font&gt;&lt;/b&gt;" style="swimlane;fontStyle=0;childLayout=stackLayout;horizontal=1;startSize=26;fillColor=#29425F;horizontalStack=0;resizeParent=1;resizeParentMax=0;resizeLast=0;collapsible=1;marginBottom=0;whiteSpace=wrap;html=1;strokeColor=none;" parent="1" vertex="1">
          <mxGeometry x="400" y="40" width="410" height="160" as="geometry" />
        </mxCell>
        <mxCell id="DWLznS8K7uxFLRwKFC4F-2" value="&amp;nbsp;" style="text;strokeColor=none;fillColor=#FAEBD7;align=left;verticalAlign=top;spacingLeft=4;spacingRight=4;overflow=hidden;rotatable=0;points=[[0,0.5],[1,0.5]];portConstraint=eastwest;whiteSpace=wrap;html=1;" parent="DWLznS8K7uxFLRwKFC4F-1" vertex="1">
          <mxGeometry y="26" width="410" height="134" as="geometry" />
        </mxCell>
        <mxCell id="DWLznS8K7uxFLRwKFC4F-3" style="edgeStyle=orthogonalEdgeStyle;rounded=0;orthogonalLoop=1;jettySize=auto;html=1;entryX=0;entryY=0.5;entryDx=0;entryDy=0;" parent="1" source="DWLznS8K7uxFLRwKFC4F-4" target="DWLznS8K7uxFLRwKFC4F-6" edge="1">
          <mxGeometry relative="1" as="geometry" />
        </mxCell>
        <mxCell id="DWLznS8K7uxFLRwKFC4F-4" value="Enrol" style="whiteSpace=wrap;html=1;aspect=fixed;fillColor=#478AAD;strokeColor=#29425F;fontColor=#FFFFFF;" parent="1" vertex="1">
          <mxGeometry x="419" y="91" width="80" height="80" as="geometry" />
        </mxCell>
        <mxCell id="DWLznS8K7uxFLRwKFC4F-5" style="edgeStyle=orthogonalEdgeStyle;rounded=0;orthogonalLoop=1;jettySize=auto;html=1;" parent="1" source="DWLznS8K7uxFLRwKFC4F-6" target="DWLznS8K7uxFLRwKFC4F-8" edge="1">
          <mxGeometry relative="1" as="geometry" />
        </mxCell>
        <mxCell id="DWLznS8K7uxFLRwKFC4F-6" value="Teach" style="whiteSpace=wrap;html=1;aspect=fixed;fillColor=#478AAD;strokeColor=#29425F;fontColor=#FFFFFF;" parent="1" vertex="1">
          <mxGeometry x="519" y="91" width="80" height="80" as="geometry" />
        </mxCell>
        <mxCell id="DWLznS8K7uxFLRwKFC4F-7" style="edgeStyle=orthogonalEdgeStyle;rounded=0;orthogonalLoop=1;jettySize=auto;html=1;" parent="1" source="DWLznS8K7uxFLRwKFC4F-8" target="DWLznS8K7uxFLRwKFC4F-10" edge="1">
          <mxGeometry relative="1" as="geometry" />
        </mxCell>
        <mxCell id="DWLznS8K7uxFLRwKFC4F-8" value="Assess" style="whiteSpace=wrap;html=1;aspect=fixed;fillColor=#478AAD;strokeColor=#29425F;fontColor=#FFFFFF;" parent="1" vertex="1">
          <mxGeometry x="619" y="91" width="80" height="80" as="geometry" />
        </mxCell>
        <mxCell id="DWLznS8K7uxFLRwKFC4F-9" style="edgeStyle=orthogonalEdgeStyle;rounded=0;orthogonalLoop=1;jettySize=auto;html=1;entryX=0;entryY=0.481;entryDx=0;entryDy=0;entryPerimeter=0;" parent="1" source="DWLznS8K7uxFLRwKFC4F-10" target="DWLznS8K7uxFLRwKFC4F-18" edge="1">
          <mxGeometry relative="1" as="geometry">
            <mxPoint x="850" y="130" as="targetPoint" />
          </mxGeometry>
        </mxCell>
        <mxCell id="DWLznS8K7uxFLRwKFC4F-10" value="Graduate" style="whiteSpace=wrap;html=1;aspect=fixed;fillColor=#478AAD;strokeColor=#29425F;fontColor=#FFFFFF;" parent="1" vertex="1">
          <mxGeometry x="719" y="91" width="80" height="80" as="geometry" />
        </mxCell>
        <mxCell id="DWLznS8K7uxFLRwKFC4F-11" value="&lt;b&gt;&lt;font color=&quot;#ffffff&quot;&gt;INPUT&lt;/font&gt;&lt;/b&gt;" style="swimlane;fontStyle=0;childLayout=stackLayout;horizontal=1;startSize=26;fillColor=#29425F;horizontalStack=0;resizeParent=1;resizeParentMax=0;resizeLast=0;collapsible=1;marginBottom=0;whiteSpace=wrap;html=1;strokeColor=none;" parent="1" vertex="1">
          <mxGeometry x="240" y="40" width="140" height="160" as="geometry" />
        </mxCell>
        <mxCell id="DWLznS8K7uxFLRwKFC4F-12" value="Highschool students" style="text;strokeColor=none;fillColor=#FAEBD7;align=left;verticalAlign=top;spacingLeft=4;spacingRight=4;overflow=hidden;rotatable=0;points=[[0,0.5],[1,0.5]];portConstraint=eastwest;whiteSpace=wrap;html=1;" parent="DWLznS8K7uxFLRwKFC4F-11" vertex="1">
          <mxGeometry y="26" width="140" height="26" as="geometry" />
        </mxCell>
        <mxCell id="DWLznS8K7uxFLRwKFC4F-13" value="Mature age students" style="text;strokeColor=none;fillColor=#FAEBD7;align=left;verticalAlign=top;spacingLeft=4;spacingRight=4;overflow=hidden;rotatable=0;points=[[0,0.5],[1,0.5]];portConstraint=eastwest;whiteSpace=wrap;html=1;" parent="DWLznS8K7uxFLRwKFC4F-11" vertex="1">
          <mxGeometry y="52" width="140" height="26" as="geometry" />
        </mxCell>
        <mxCell id="DWLznS8K7uxFLRwKFC4F-14" value="Vocational transfers" style="text;strokeColor=none;fillColor=#FAEBD7;align=left;verticalAlign=top;spacingLeft=4;spacingRight=4;overflow=hidden;rotatable=0;points=[[0,0.5],[1,0.5]];portConstraint=eastwest;whiteSpace=wrap;html=1;" parent="DWLznS8K7uxFLRwKFC4F-11" vertex="1">
          <mxGeometry y="78" width="140" height="26" as="geometry" />
        </mxCell>
        <mxCell id="DWLznS8K7uxFLRwKFC4F-15" value="International students" style="text;strokeColor=none;fillColor=#FAEBD7;align=left;verticalAlign=top;spacingLeft=4;spacingRight=4;overflow=hidden;rotatable=0;points=[[0,0.5],[1,0.5]];portConstraint=eastwest;whiteSpace=wrap;html=1;" parent="DWLznS8K7uxFLRwKFC4F-11" vertex="1">
          <mxGeometry y="104" width="140" height="26" as="geometry" />
        </mxCell>
        <mxCell id="DWLznS8K7uxFLRwKFC4F-16" value="Transfers" style="text;strokeColor=none;fillColor=#FAEBD7;align=left;verticalAlign=top;spacingLeft=4;spacingRight=4;overflow=hidden;rotatable=0;points=[[0,0.5],[1,0.5]];portConstraint=eastwest;whiteSpace=wrap;html=1;" parent="DWLznS8K7uxFLRwKFC4F-11" vertex="1">
          <mxGeometry y="130" width="140" height="30" as="geometry" />
        </mxCell>
        <mxCell id="DWLznS8K7uxFLRwKFC4F-17" value="&lt;b&gt;&lt;font color=&quot;#ffffff&quot;&gt;OUTPUT&lt;/font&gt;&lt;/b&gt;" style="swimlane;fontStyle=0;childLayout=stackLayout;horizontal=1;startSize=26;fillColor=#29425F;horizontalStack=0;resizeParent=1;resizeParentMax=0;resizeLast=0;collapsible=1;marginBottom=0;whiteSpace=wrap;html=1;strokeColor=none;" parent="1" vertex="1">
          <mxGeometry x="830" y="40" width="70" height="160" as="geometry" />
        </mxCell>
        <mxCell id="DWLznS8K7uxFLRwKFC4F-19" style="edgeStyle=orthogonalEdgeStyle;rounded=0;orthogonalLoop=1;jettySize=auto;html=1;entryX=0;entryY=0.5;entryDx=0;entryDy=0;" parent="1" source="DWLznS8K7uxFLRwKFC4F-14" target="DWLznS8K7uxFLRwKFC4F-4" edge="1">
          <mxGeometry relative="1" as="geometry">
            <mxPoint x="400" y="131" as="targetPoint" />
          </mxGeometry>
        </mxCell>
        <mxCell id="DWLznS8K7uxFLRwKFC4F-20" value="&lt;b&gt;&lt;font color=&quot;#ffffff&quot;&gt;SUPPLIER&lt;/font&gt;&lt;/b&gt;" style="swimlane;fontStyle=0;childLayout=stackLayout;horizontal=1;startSize=26;fillColor=#29425F;horizontalStack=0;resizeParent=1;resizeParentMax=0;resizeLast=0;collapsible=1;marginBottom=0;whiteSpace=wrap;html=1;strokeColor=none;" parent="1" vertex="1">
          <mxGeometry x="110" y="40" width="110" height="160" as="geometry" />
        </mxCell>
        <mxCell id="DWLznS8K7uxFLRwKFC4F-21" value="Highschool" style="text;strokeColor=none;fillColor=#FAEBD7;align=right;verticalAlign=top;spacingLeft=4;spacingRight=4;overflow=hidden;rotatable=0;points=[[0,0.5],[1,0.5]];portConstraint=eastwest;whiteSpace=wrap;html=1;" parent="DWLznS8K7uxFLRwKFC4F-20" vertex="1">
          <mxGeometry y="26" width="110" height="26" as="geometry" />
        </mxCell>
        <mxCell id="DWLznS8K7uxFLRwKFC4F-22" value="Bridging programs" style="text;strokeColor=none;fillColor=#FAEBD7;align=right;verticalAlign=top;spacingLeft=4;spacingRight=4;overflow=hidden;rotatable=0;points=[[0,0.5],[1,0.5]];portConstraint=eastwest;whiteSpace=wrap;html=1;" parent="DWLznS8K7uxFLRwKFC4F-20" vertex="1">
          <mxGeometry y="52" width="110" height="26" as="geometry" />
        </mxCell>
        <mxCell id="DWLznS8K7uxFLRwKFC4F-23" value="Technical colleges" style="text;strokeColor=none;fillColor=#FAEBD7;align=right;verticalAlign=top;spacingLeft=4;spacingRight=4;overflow=hidden;rotatable=0;points=[[0,0.5],[1,0.5]];portConstraint=eastwest;whiteSpace=wrap;html=1;" parent="DWLznS8K7uxFLRwKFC4F-20" vertex="1">
          <mxGeometry y="78" width="110" height="26" as="geometry" />
        </mxCell>
        <mxCell id="DWLznS8K7uxFLRwKFC4F-24" value="Foreign countries" style="text;strokeColor=none;fillColor=#FAEBD7;align=right;verticalAlign=top;spacingLeft=4;spacingRight=4;overflow=hidden;rotatable=0;points=[[0,0.5],[1,0.5]];portConstraint=eastwest;whiteSpace=wrap;html=1;" parent="DWLznS8K7uxFLRwKFC4F-20" vertex="1">
          <mxGeometry y="104" width="110" height="26" as="geometry" />
        </mxCell>
        <mxCell id="DWLznS8K7uxFLRwKFC4F-25" value="Other universities" style="text;strokeColor=none;fillColor=#FAEBD7;align=right;verticalAlign=top;spacingLeft=4;spacingRight=4;overflow=hidden;rotatable=0;points=[[0,0.5],[1,0.5]];portConstraint=eastwest;whiteSpace=wrap;html=1;" parent="DWLznS8K7uxFLRwKFC4F-20" vertex="1">
          <mxGeometry y="130" width="110" height="30" as="geometry" />
        </mxCell>
        <mxCell id="DWLznS8K7uxFLRwKFC4F-26" style="edgeStyle=orthogonalEdgeStyle;rounded=0;orthogonalLoop=1;jettySize=auto;html=1;" parent="1" source="DWLznS8K7uxFLRwKFC4F-21" target="DWLznS8K7uxFLRwKFC4F-12" edge="1">
          <mxGeometry relative="1" as="geometry" />
        </mxCell>
        <mxCell id="DWLznS8K7uxFLRwKFC4F-27" style="edgeStyle=orthogonalEdgeStyle;rounded=0;orthogonalLoop=1;jettySize=auto;html=1;exitX=1;exitY=0.5;exitDx=0;exitDy=0;" parent="1" source="DWLznS8K7uxFLRwKFC4F-22" target="DWLznS8K7uxFLRwKFC4F-13" edge="1">
          <mxGeometry relative="1" as="geometry" />
        </mxCell>
        <mxCell id="DWLznS8K7uxFLRwKFC4F-28" style="edgeStyle=orthogonalEdgeStyle;rounded=0;orthogonalLoop=1;jettySize=auto;html=1;" parent="1" source="DWLznS8K7uxFLRwKFC4F-23" target="DWLznS8K7uxFLRwKFC4F-14" edge="1">
          <mxGeometry relative="1" as="geometry" />
        </mxCell>
        <mxCell id="DWLznS8K7uxFLRwKFC4F-29" style="edgeStyle=orthogonalEdgeStyle;rounded=0;orthogonalLoop=1;jettySize=auto;html=1;" parent="1" source="DWLznS8K7uxFLRwKFC4F-24" target="DWLznS8K7uxFLRwKFC4F-15" edge="1">
          <mxGeometry relative="1" as="geometry" />
        </mxCell>
        <mxCell id="DWLznS8K7uxFLRwKFC4F-30" style="edgeStyle=orthogonalEdgeStyle;rounded=0;orthogonalLoop=1;jettySize=auto;html=1;" parent="1" source="DWLznS8K7uxFLRwKFC4F-25" target="DWLznS8K7uxFLRwKFC4F-16" edge="1">
          <mxGeometry relative="1" as="geometry" />
        </mxCell>
        <mxCell id="DWLznS8K7uxFLRwKFC4F-31" value="&lt;b&gt;&lt;font color=&quot;#ffffff&quot;&gt;CUSTOMER&lt;/font&gt;&lt;/b&gt;" style="swimlane;fontStyle=0;childLayout=stackLayout;horizontal=1;startSize=26;fillColor=#29425F;horizontalStack=0;resizeParent=1;resizeParentMax=0;resizeLast=0;collapsible=1;marginBottom=0;whiteSpace=wrap;html=1;strokeColor=none;" parent="1" vertex="1">
          <mxGeometry x="930" y="40" width="140" height="160" as="geometry" />
        </mxCell>
        <mxCell id="DWLznS8K7uxFLRwKFC4F-35" value="Private sector / industry" style="text;strokeColor=none;fillColor=#FAEBD7;align=left;verticalAlign=middle;spacingLeft=4;spacingRight=4;overflow=hidden;rotatable=0;points=[[0,0.5],[1,0.5]];portConstraint=eastwest;whiteSpace=wrap;html=1;" parent="DWLznS8K7uxFLRwKFC4F-31" vertex="1">
          <mxGeometry y="26" width="140" height="44" as="geometry" />
        </mxCell>
        <mxCell id="DWLznS8K7uxFLRwKFC4F-32" value="Public sector" style="text;strokeColor=none;fillColor=#FAEBD7;align=left;verticalAlign=middle;spacingLeft=4;spacingRight=4;overflow=hidden;rotatable=0;points=[[0,0.5],[1,0.5]];portConstraint=eastwest;whiteSpace=wrap;html=1;" parent="DWLznS8K7uxFLRwKFC4F-31" vertex="1">
          <mxGeometry y="70" width="140" height="40" as="geometry" />
        </mxCell>
        <mxCell id="DWLznS8K7uxFLRwKFC4F-36" value="Grad school" style="text;strokeColor=none;fillColor=#FAEBD7;align=left;verticalAlign=middle;spacingLeft=4;spacingRight=4;overflow=hidden;rotatable=0;points=[[0,0.5],[1,0.5]];portConstraint=eastwest;whiteSpace=wrap;html=1;" parent="DWLznS8K7uxFLRwKFC4F-31" vertex="1">
          <mxGeometry y="110" width="140" height="50" as="geometry" />
        </mxCell>
        <mxCell id="DWLznS8K7uxFLRwKFC4F-39" style="edgeStyle=orthogonalEdgeStyle;rounded=0;orthogonalLoop=1;jettySize=auto;html=1;entryX=0;entryY=0.5;entryDx=0;entryDy=0;" parent="1" source="DWLznS8K7uxFLRwKFC4F-18" target="DWLznS8K7uxFLRwKFC4F-35" edge="1">
          <mxGeometry relative="1" as="geometry">
            <Array as="points">
              <mxPoint x="910" y="133" />
              <mxPoint x="910" y="88" />
            </Array>
          </mxGeometry>
        </mxCell>
        <mxCell id="DWLznS8K7uxFLRwKFC4F-40" style="edgeStyle=orthogonalEdgeStyle;rounded=0;orthogonalLoop=1;jettySize=auto;html=1;entryX=-0.005;entryY=0.574;entryDx=0;entryDy=0;entryPerimeter=0;" parent="1" source="DWLznS8K7uxFLRwKFC4F-18" target="DWLznS8K7uxFLRwKFC4F-32" edge="1">
          <mxGeometry relative="1" as="geometry" />
        </mxCell>
        <mxCell id="Py53gqO2NwRrfhiT3jEu-6" style="edgeStyle=orthogonalEdgeStyle;rounded=0;orthogonalLoop=1;jettySize=auto;html=1;" parent="1" source="DWLznS8K7uxFLRwKFC4F-18" target="DWLznS8K7uxFLRwKFC4F-36" edge="1">
          <mxGeometry relative="1" as="geometry">
            <Array as="points">
              <mxPoint x="910" y="133" />
              <mxPoint x="910" y="175" />
            </Array>
          </mxGeometry>
        </mxCell>
        <mxCell id="DWLznS8K7uxFLRwKFC4F-18" value="Graduates" style="text;strokeColor=none;fillColor=#FAEBD7;align=left;verticalAlign=middle;spacingLeft=4;spacingRight=4;overflow=hidden;rotatable=0;points=[[0,0.5],[1,0.5]];portConstraint=eastwest;whiteSpace=wrap;html=1;" parent="1" vertex="1">
          <mxGeometry x="830" y="66" width="70" height="134" as="geometry" />
        </mxCell>
      </root>
    </mxGraphModel>
  </diagram>
  <diagram id="eacRB1NyzYBDomzdedR3" name="membrane_dryer">
    <mxGraphModel dx="1007" dy="662" grid="1" gridSize="10" guides="1" tooltips="1" connect="1" arrows="1" fold="1" page="1" pageScale="1" pageWidth="1169" pageHeight="827" math="0" shadow="0">
      <root>
        <mxCell id="0" />
        <mxCell id="1" parent="0" />
        <mxCell id="ythSKK8YNreiE9OXP0r3-1" value="&lt;b&gt;&lt;font color=&quot;#ffffff&quot;&gt;PROCESS&lt;/font&gt;&lt;/b&gt;" style="swimlane;fontStyle=0;childLayout=stackLayout;horizontal=1;startSize=26;fillColor=#29425F;horizontalStack=0;resizeParent=1;resizeParentMax=0;resizeLast=0;collapsible=1;marginBottom=0;whiteSpace=wrap;html=1;strokeColor=none;" parent="1" vertex="1">
          <mxGeometry x="400" y="40" width="410" height="160" as="geometry" />
        </mxCell>
        <mxCell id="ythSKK8YNreiE9OXP0r3-2" value="&amp;nbsp;" style="text;strokeColor=none;fillColor=#FAEBD7;align=left;verticalAlign=top;spacingLeft=4;spacingRight=4;overflow=hidden;rotatable=0;points=[[0,0.5],[1,0.5]];portConstraint=eastwest;whiteSpace=wrap;html=1;" parent="ythSKK8YNreiE9OXP0r3-1" vertex="1">
          <mxGeometry y="26" width="410" height="134" as="geometry" />
        </mxCell>
        <mxCell id="ythSKK8YNreiE9OXP0r3-3" style="edgeStyle=orthogonalEdgeStyle;rounded=0;orthogonalLoop=1;jettySize=auto;html=1;entryX=0;entryY=0.5;entryDx=0;entryDy=0;" parent="1" source="ythSKK8YNreiE9OXP0r3-4" target="ythSKK8YNreiE9OXP0r3-6" edge="1">
          <mxGeometry relative="1" as="geometry" />
        </mxCell>
        <mxCell id="ythSKK8YNreiE9OXP0r3-4" value="Lock off pneumatics" style="whiteSpace=wrap;html=1;aspect=fixed;fillColor=#478AAD;strokeColor=#29425F;fontColor=#FFFFFF;" parent="1" vertex="1">
          <mxGeometry x="419" y="93" width="80" height="80" as="geometry" />
        </mxCell>
        <mxCell id="ythSKK8YNreiE9OXP0r3-5" style="edgeStyle=orthogonalEdgeStyle;rounded=0;orthogonalLoop=1;jettySize=auto;html=1;" parent="1" source="ythSKK8YNreiE9OXP0r3-6" target="ythSKK8YNreiE9OXP0r3-8" edge="1">
          <mxGeometry relative="1" as="geometry" />
        </mxCell>
        <mxCell id="ythSKK8YNreiE9OXP0r3-6" value="Uninstall old membrane dryer" style="whiteSpace=wrap;html=1;aspect=fixed;fillColor=#478AAD;strokeColor=#29425F;fontColor=#FFFFFF;" parent="1" vertex="1">
          <mxGeometry x="519" y="93" width="80" height="80" as="geometry" />
        </mxCell>
        <mxCell id="ythSKK8YNreiE9OXP0r3-7" style="edgeStyle=orthogonalEdgeStyle;rounded=0;orthogonalLoop=1;jettySize=auto;html=1;" parent="1" source="ythSKK8YNreiE9OXP0r3-8" target="ythSKK8YNreiE9OXP0r3-10" edge="1">
          <mxGeometry relative="1" as="geometry" />
        </mxCell>
        <mxCell id="ythSKK8YNreiE9OXP0r3-8" value="Install new membrane dryer" style="whiteSpace=wrap;html=1;aspect=fixed;fillColor=#478AAD;strokeColor=#29425F;fontColor=#FFFFFF;" parent="1" vertex="1">
          <mxGeometry x="619" y="93" width="80" height="80" as="geometry" />
        </mxCell>
        <mxCell id="ythSKK8YNreiE9OXP0r3-9" style="edgeStyle=orthogonalEdgeStyle;rounded=0;orthogonalLoop=1;jettySize=auto;html=1;" parent="1" source="ythSKK8YNreiE9OXP0r3-10" target="ythSKK8YNreiE9OXP0r3-37" edge="1">
          <mxGeometry relative="1" as="geometry">
            <mxPoint x="850" y="130" as="targetPoint" />
          </mxGeometry>
        </mxCell>
        <mxCell id="ythSKK8YNreiE9OXP0r3-10" value="Unlock pneumatics" style="whiteSpace=wrap;html=1;aspect=fixed;fillColor=#478AAD;strokeColor=#29425F;fontColor=#FFFFFF;" parent="1" vertex="1">
          <mxGeometry x="719" y="93" width="80" height="80" as="geometry" />
        </mxCell>
        <mxCell id="ythSKK8YNreiE9OXP0r3-11" value="&lt;b&gt;&lt;font color=&quot;#ffffff&quot;&gt;INPUT&lt;/font&gt;&lt;/b&gt;" style="swimlane;fontStyle=0;childLayout=stackLayout;horizontal=1;startSize=26;fillColor=#29425F;horizontalStack=0;resizeParent=1;resizeParentMax=0;resizeLast=0;collapsible=1;marginBottom=0;whiteSpace=wrap;html=1;strokeColor=none;" parent="1" vertex="1">
          <mxGeometry x="300" y="40" width="80" height="160" as="geometry" />
        </mxCell>
        <mxCell id="ythSKK8YNreiE9OXP0r3-12" value="New membrane dryer" style="text;strokeColor=none;fillColor=#FAEBD7;align=center;verticalAlign=middle;spacingLeft=4;spacingRight=4;overflow=hidden;rotatable=0;points=[[0,0.5],[1,0.5]];portConstraint=eastwest;whiteSpace=wrap;html=1;" parent="ythSKK8YNreiE9OXP0r3-11" vertex="1">
          <mxGeometry y="26" width="80" height="134" as="geometry" />
        </mxCell>
        <mxCell id="_3xAo_8T7TaL2SzpiaYQ-2" style="edgeStyle=orthogonalEdgeStyle;rounded=0;orthogonalLoop=1;jettySize=auto;html=1;" parent="1" source="ythSKK8YNreiE9OXP0r3-17" target="ythSKK8YNreiE9OXP0r3-19" edge="1">
          <mxGeometry relative="1" as="geometry">
            <Array as="points">
              <mxPoint x="865" y="240" />
              <mxPoint x="239" y="240" />
            </Array>
          </mxGeometry>
        </mxCell>
        <mxCell id="_3xAo_8T7TaL2SzpiaYQ-3" value="&lt;font style=&quot;font-size: 16px;&quot;&gt;FEEDBACK???&lt;/font&gt;" style="edgeLabel;html=1;align=center;verticalAlign=middle;resizable=0;points=[];fontSize=16;" parent="_3xAo_8T7TaL2SzpiaYQ-2" vertex="1" connectable="0">
          <mxGeometry relative="1" as="geometry">
            <mxPoint as="offset" />
          </mxGeometry>
        </mxCell>
        <mxCell id="ythSKK8YNreiE9OXP0r3-17" value="&lt;b&gt;&lt;font color=&quot;#ffffff&quot;&gt;OUTPUT&lt;/font&gt;&lt;/b&gt;" style="swimlane;fontStyle=0;childLayout=stackLayout;horizontal=1;startSize=26;fillColor=#29425F;horizontalStack=0;resizeParent=1;resizeParentMax=0;resizeLast=0;collapsible=1;marginBottom=0;whiteSpace=wrap;html=1;strokeColor=none;" parent="1" vertex="1">
          <mxGeometry x="830" y="40" width="70" height="160" as="geometry" />
        </mxCell>
        <mxCell id="ythSKK8YNreiE9OXP0r3-19" value="&lt;b&gt;&lt;font color=&quot;#ffffff&quot;&gt;SUPPLIER&lt;/font&gt;&lt;/b&gt;" style="swimlane;fontStyle=0;childLayout=stackLayout;horizontal=1;startSize=26;fillColor=#29425F;horizontalStack=0;resizeParent=1;resizeParentMax=0;resizeLast=0;collapsible=1;marginBottom=0;whiteSpace=wrap;html=1;strokeColor=none;" parent="1" vertex="1">
          <mxGeometry x="200" y="40" width="79" height="160" as="geometry" />
        </mxCell>
        <mxCell id="ythSKK8YNreiE9OXP0r3-20" value="Supplier" style="text;strokeColor=none;fillColor=#FAEBD7;align=center;verticalAlign=middle;spacingLeft=4;spacingRight=4;overflow=hidden;rotatable=0;points=[[0,0.5],[1,0.5]];portConstraint=eastwest;whiteSpace=wrap;html=1;" parent="ythSKK8YNreiE9OXP0r3-19" vertex="1">
          <mxGeometry y="26" width="79" height="134" as="geometry" />
        </mxCell>
        <mxCell id="ythSKK8YNreiE9OXP0r3-25" style="edgeStyle=orthogonalEdgeStyle;rounded=0;orthogonalLoop=1;jettySize=auto;html=1;" parent="1" source="ythSKK8YNreiE9OXP0r3-20" target="ythSKK8YNreiE9OXP0r3-12" edge="1">
          <mxGeometry relative="1" as="geometry" />
        </mxCell>
        <mxCell id="ythSKK8YNreiE9OXP0r3-30" value="&lt;b&gt;&lt;font color=&quot;#ffffff&quot;&gt;CUSTOMER&lt;/font&gt;&lt;/b&gt;" style="swimlane;fontStyle=0;childLayout=stackLayout;horizontal=1;startSize=26;fillColor=#29425F;horizontalStack=0;resizeParent=1;resizeParentMax=0;resizeLast=0;collapsible=1;marginBottom=0;whiteSpace=wrap;html=1;strokeColor=none;" parent="1" vertex="1">
          <mxGeometry x="920" y="40" width="140" height="160" as="geometry" />
        </mxCell>
        <mxCell id="ythSKK8YNreiE9OXP0r3-32" value="A box in the storeroom?" style="text;strokeColor=none;fillColor=#FAEBD7;align=center;verticalAlign=middle;spacingLeft=4;spacingRight=4;overflow=hidden;rotatable=0;points=[[0,0.5],[1,0.5]];portConstraint=eastwest;whiteSpace=wrap;html=1;" parent="ythSKK8YNreiE9OXP0r3-30" vertex="1">
          <mxGeometry y="26" width="140" height="134" as="geometry" />
        </mxCell>
        <mxCell id="ythSKK8YNreiE9OXP0r3-39" style="edgeStyle=orthogonalEdgeStyle;rounded=0;orthogonalLoop=1;jettySize=auto;html=1;entryX=0;entryY=0.5;entryDx=0;entryDy=0;" parent="1" source="ythSKK8YNreiE9OXP0r3-37" target="ythSKK8YNreiE9OXP0r3-32" edge="1">
          <mxGeometry relative="1" as="geometry" />
        </mxCell>
        <mxCell id="ythSKK8YNreiE9OXP0r3-37" value="Old membrane&lt;br&gt;dryer" style="text;strokeColor=none;fillColor=#FAEBD7;align=center;verticalAlign=middle;spacingLeft=4;spacingRight=4;overflow=hidden;rotatable=0;points=[[0,0.5],[1,0.5]];portConstraint=eastwest;whiteSpace=wrap;html=1;" parent="1" vertex="1">
          <mxGeometry x="830" y="66" width="70" height="134" as="geometry" />
        </mxCell>
        <mxCell id="ythSKK8YNreiE9OXP0r3-40" style="edgeStyle=orthogonalEdgeStyle;rounded=0;orthogonalLoop=1;jettySize=auto;html=1;" parent="1" source="ythSKK8YNreiE9OXP0r3-12" target="ythSKK8YNreiE9OXP0r3-4" edge="1">
          <mxGeometry relative="1" as="geometry" />
        </mxCell>
      </root>
    </mxGraphModel>
  </diagram>
  <diagram id="D6hk-VY_BiL5GKj1jFoM" name="lamingtons">
    <mxGraphModel dx="1370" dy="704" grid="1" gridSize="10" guides="1" tooltips="1" connect="1" arrows="1" fold="1" page="1" pageScale="1" pageWidth="1169" pageHeight="827" math="0" shadow="0">
      <root>
        <mxCell id="0" />
        <mxCell id="1" parent="0" />
        <mxCell id="RnKuT3CLdtK3t2uk2Y4t-1" value="&lt;b&gt;&lt;font color=&quot;#ffffff&quot;&gt;PROCESS&lt;/font&gt;&lt;/b&gt;" style="swimlane;fontStyle=0;childLayout=stackLayout;horizontal=1;startSize=26;fillColor=#29425F;horizontalStack=0;resizeParent=1;resizeParentMax=0;resizeLast=0;collapsible=1;marginBottom=0;whiteSpace=wrap;html=1;strokeColor=none;" parent="1" vertex="1">
          <mxGeometry x="330" y="40" width="510" height="280" as="geometry" />
        </mxCell>
        <mxCell id="RnKuT3CLdtK3t2uk2Y4t-2" value="&amp;nbsp;" style="text;strokeColor=none;fillColor=#FAEBD7;align=left;verticalAlign=top;spacingLeft=4;spacingRight=4;overflow=hidden;rotatable=0;points=[[0,0.5],[1,0.5]];portConstraint=eastwest;whiteSpace=wrap;html=1;" parent="RnKuT3CLdtK3t2uk2Y4t-1" vertex="1">
          <mxGeometry y="26" width="510" height="254" as="geometry" />
        </mxCell>
        <mxCell id="cieGOvbksCEgO7fDW6tM-1" style="edgeStyle=orthogonalEdgeStyle;rounded=0;orthogonalLoop=1;jettySize=auto;html=1;entryX=0;entryY=0.5;entryDx=0;entryDy=0;" parent="1" source="cieGOvbksCEgO7fDW6tM-2" target="cieGOvbksCEgO7fDW6tM-4" edge="1">
          <mxGeometry relative="1" as="geometry" />
        </mxCell>
        <mxCell id="cieGOvbksCEgO7fDW6tM-2" value="Mix batter" style="whiteSpace=wrap;html=1;aspect=fixed;fillColor=#478AAD;strokeColor=#29425F;fontColor=#FFFFFF;" parent="1" vertex="1">
          <mxGeometry x="350" y="140" width="80" height="80" as="geometry" />
        </mxCell>
        <mxCell id="cieGOvbksCEgO7fDW6tM-3" style="edgeStyle=orthogonalEdgeStyle;rounded=0;orthogonalLoop=1;jettySize=auto;html=1;" parent="1" source="cieGOvbksCEgO7fDW6tM-4" target="cieGOvbksCEgO7fDW6tM-6" edge="1">
          <mxGeometry relative="1" as="geometry" />
        </mxCell>
        <mxCell id="cieGOvbksCEgO7fDW6tM-4" value="Bake in oven" style="whiteSpace=wrap;html=1;aspect=fixed;fillColor=#478AAD;strokeColor=#29425F;fontColor=#FFFFFF;" parent="1" vertex="1">
          <mxGeometry x="450" y="140" width="80" height="80" as="geometry" />
        </mxCell>
        <mxCell id="cieGOvbksCEgO7fDW6tM-5" style="edgeStyle=orthogonalEdgeStyle;rounded=0;orthogonalLoop=1;jettySize=auto;html=1;" parent="1" source="cieGOvbksCEgO7fDW6tM-6" target="cieGOvbksCEgO7fDW6tM-7" edge="1">
          <mxGeometry relative="1" as="geometry" />
        </mxCell>
        <mxCell id="cieGOvbksCEgO7fDW6tM-6" value="Make chocolate sauce" style="whiteSpace=wrap;html=1;aspect=fixed;fillColor=#478AAD;strokeColor=#29425F;fontColor=#FFFFFF;" parent="1" vertex="1">
          <mxGeometry x="550" y="140" width="80" height="80" as="geometry" />
        </mxCell>
        <mxCell id="cieGOvbksCEgO7fDW6tM-36" style="edgeStyle=orthogonalEdgeStyle;rounded=0;orthogonalLoop=1;jettySize=auto;html=1;" parent="1" source="cieGOvbksCEgO7fDW6tM-7" target="cieGOvbksCEgO7fDW6tM-35" edge="1">
          <mxGeometry relative="1" as="geometry" />
        </mxCell>
        <mxCell id="cieGOvbksCEgO7fDW6tM-7" value="Dip cake cubes in sauce" style="whiteSpace=wrap;html=1;aspect=fixed;fillColor=#478AAD;strokeColor=#29425F;fontColor=#FFFFFF;" parent="1" vertex="1">
          <mxGeometry x="650" y="140" width="80" height="80" as="geometry" />
        </mxCell>
        <mxCell id="cieGOvbksCEgO7fDW6tM-35" value="Roll cake in coconut shavings" style="whiteSpace=wrap;html=1;aspect=fixed;fillColor=#478AAD;strokeColor=#29425F;fontColor=#FFFFFF;" parent="1" vertex="1">
          <mxGeometry x="750" y="140" width="80" height="80" as="geometry" />
        </mxCell>
        <mxCell id="rHL3GPA1HStZm2Ger8QX-14" style="edgeStyle=orthogonalEdgeStyle;rounded=0;orthogonalLoop=1;jettySize=auto;html=1;" parent="1" source="RnKuT3CLdtK3t2uk2Y4t-11" target="cieGOvbksCEgO7fDW6tM-2" edge="1">
          <mxGeometry relative="1" as="geometry" />
        </mxCell>
        <mxCell id="RnKuT3CLdtK3t2uk2Y4t-11" value="&lt;b&gt;&lt;font color=&quot;#ffffff&quot;&gt;INPUT&lt;/font&gt;&lt;/b&gt;" style="swimlane;fontStyle=0;childLayout=stackLayout;horizontal=1;startSize=26;fillColor=#29425F;horizontalStack=0;resizeParent=1;resizeParentMax=0;resizeLast=0;collapsible=1;marginBottom=0;whiteSpace=wrap;html=1;strokeColor=none;" parent="1" vertex="1">
          <mxGeometry x="198" y="40" width="110" height="280" as="geometry" />
        </mxCell>
        <mxCell id="RnKuT3CLdtK3t2uk2Y4t-12" value="Baking powder" style="text;strokeColor=none;fillColor=#FAEBD7;align=center;verticalAlign=middle;spacingLeft=4;spacingRight=4;overflow=hidden;rotatable=0;points=[[0,0.5],[1,0.5]];portConstraint=eastwest;whiteSpace=wrap;html=1;" parent="RnKuT3CLdtK3t2uk2Y4t-11" vertex="1">
          <mxGeometry y="26" width="110" height="26" as="geometry" />
        </mxCell>
        <mxCell id="RnKuT3CLdtK3t2uk2Y4t-13" value="Flour*" style="text;strokeColor=none;fillColor=#FAEBD7;align=center;verticalAlign=top;spacingLeft=4;spacingRight=4;overflow=hidden;rotatable=0;points=[[0,0.5],[1,0.5]];portConstraint=eastwest;whiteSpace=wrap;html=1;" parent="RnKuT3CLdtK3t2uk2Y4t-11" vertex="1">
          <mxGeometry y="52" width="110" height="26" as="geometry" />
        </mxCell>
        <mxCell id="RnKuT3CLdtK3t2uk2Y4t-14" value="Cocoa powder" style="text;strokeColor=none;fillColor=#FAEBD7;align=center;verticalAlign=middle;spacingLeft=4;spacingRight=4;overflow=hidden;rotatable=0;points=[[0,0.5],[1,0.5]];portConstraint=eastwest;whiteSpace=wrap;html=1;" parent="RnKuT3CLdtK3t2uk2Y4t-11" vertex="1">
          <mxGeometry y="78" width="110" height="26" as="geometry" />
        </mxCell>
        <mxCell id="RnKuT3CLdtK3t2uk2Y4t-15" value="Butter" style="text;strokeColor=none;fillColor=#FAEBD7;align=center;verticalAlign=middle;spacingLeft=4;spacingRight=4;overflow=hidden;rotatable=0;points=[[0,0.5],[1,0.5]];portConstraint=eastwest;whiteSpace=wrap;html=1;" parent="RnKuT3CLdtK3t2uk2Y4t-11" vertex="1">
          <mxGeometry y="104" width="110" height="26" as="geometry" />
        </mxCell>
        <mxCell id="RnKuT3CLdtK3t2uk2Y4t-16" value="Milk" style="text;strokeColor=none;fillColor=#FAEBD7;align=center;verticalAlign=middle;spacingLeft=4;spacingRight=4;overflow=hidden;rotatable=0;points=[[0,0.5],[1,0.5]];portConstraint=eastwest;whiteSpace=wrap;html=1;" parent="RnKuT3CLdtK3t2uk2Y4t-11" vertex="1">
          <mxGeometry y="130" width="110" height="30" as="geometry" />
        </mxCell>
        <mxCell id="RnKuT3CLdtK3t2uk2Y4t-38" value="Caster sugar" style="text;strokeColor=none;fillColor=#FAEBD7;align=center;verticalAlign=middle;spacingLeft=4;spacingRight=4;overflow=hidden;rotatable=0;points=[[0,0.5],[1,0.5]];portConstraint=eastwest;whiteSpace=wrap;html=1;" parent="RnKuT3CLdtK3t2uk2Y4t-11" vertex="1">
          <mxGeometry y="160" width="110" height="30" as="geometry" />
        </mxCell>
        <mxCell id="RnKuT3CLdtK3t2uk2Y4t-39" value="Coconut shavings" style="text;strokeColor=none;fillColor=#FAEBD7;align=center;verticalAlign=middle;spacingLeft=4;spacingRight=4;overflow=hidden;rotatable=0;points=[[0,0.5],[1,0.5]];portConstraint=eastwest;whiteSpace=wrap;html=1;" parent="RnKuT3CLdtK3t2uk2Y4t-11" vertex="1">
          <mxGeometry y="190" width="110" height="30" as="geometry" />
        </mxCell>
        <mxCell id="RnKuT3CLdtK3t2uk2Y4t-40" value="Icing Sugar" style="text;strokeColor=none;fillColor=#FAEBD7;align=center;verticalAlign=middle;spacingLeft=4;spacingRight=4;overflow=hidden;rotatable=0;points=[[0,0.5],[1,0.5]];portConstraint=eastwest;whiteSpace=wrap;html=1;" parent="RnKuT3CLdtK3t2uk2Y4t-11" vertex="1">
          <mxGeometry y="220" width="110" height="30" as="geometry" />
        </mxCell>
        <mxCell id="RnKuT3CLdtK3t2uk2Y4t-41" value="Water" style="text;strokeColor=none;fillColor=#FAEBD7;align=center;verticalAlign=middle;spacingLeft=4;spacingRight=4;overflow=hidden;rotatable=0;points=[[0,0.5],[1,0.5]];portConstraint=eastwest;whiteSpace=wrap;html=1;" parent="RnKuT3CLdtK3t2uk2Y4t-11" vertex="1">
          <mxGeometry y="250" width="110" height="30" as="geometry" />
        </mxCell>
        <mxCell id="RnKuT3CLdtK3t2uk2Y4t-17" value="&lt;b&gt;&lt;font color=&quot;#ffffff&quot;&gt;OUTPUT&lt;/font&gt;&lt;/b&gt;" style="swimlane;fontStyle=0;childLayout=stackLayout;horizontal=1;startSize=26;fillColor=#29425F;horizontalStack=0;resizeParent=1;resizeParentMax=0;resizeLast=0;collapsible=1;marginBottom=0;whiteSpace=wrap;html=1;strokeColor=none;" parent="1" vertex="1">
          <mxGeometry x="859" y="40" width="81" height="280" as="geometry" />
        </mxCell>
        <mxCell id="rHL3GPA1HStZm2Ger8QX-16" value="Lamingtons" style="text;strokeColor=none;fillColor=#FAEBD7;align=center;verticalAlign=middle;spacingLeft=4;spacingRight=4;overflow=hidden;rotatable=0;points=[[0,0.5],[1,0.5]];portConstraint=eastwest;whiteSpace=wrap;html=1;" parent="RnKuT3CLdtK3t2uk2Y4t-17" vertex="1">
          <mxGeometry y="26" width="81" height="104" as="geometry" />
        </mxCell>
        <mxCell id="rHL3GPA1HStZm2Ger8QX-17" value="Leftover coconut" style="text;strokeColor=none;fillColor=#FAEBD7;align=center;verticalAlign=middle;spacingLeft=4;spacingRight=4;overflow=hidden;rotatable=0;points=[[0,0.5],[1,0.5]];portConstraint=eastwest;whiteSpace=wrap;html=1;" parent="RnKuT3CLdtK3t2uk2Y4t-17" vertex="1">
          <mxGeometry y="130" width="81" height="80" as="geometry" />
        </mxCell>
        <mxCell id="rHL3GPA1HStZm2Ger8QX-18" value="Used baking paper" style="text;strokeColor=none;fillColor=#FAEBD7;align=center;verticalAlign=middle;spacingLeft=4;spacingRight=4;overflow=hidden;rotatable=0;points=[[0,0.5],[1,0.5]];portConstraint=eastwest;whiteSpace=wrap;html=1;" parent="RnKuT3CLdtK3t2uk2Y4t-17" vertex="1">
          <mxGeometry y="210" width="81" height="70" as="geometry" />
        </mxCell>
        <mxCell id="RnKuT3CLdtK3t2uk2Y4t-19" value="&lt;b&gt;&lt;font color=&quot;#ffffff&quot;&gt;SUPPLIER&lt;/font&gt;&lt;/b&gt;" style="swimlane;fontStyle=0;childLayout=stackLayout;horizontal=1;startSize=26;fillColor=#29425F;horizontalStack=0;resizeParent=1;resizeParentMax=0;resizeLast=0;collapsible=1;marginBottom=0;whiteSpace=wrap;html=1;strokeColor=none;" parent="1" vertex="1">
          <mxGeometry x="54" y="40" width="110" height="280" as="geometry" />
        </mxCell>
        <mxCell id="RnKuT3CLdtK3t2uk2Y4t-20" value="Ipercoop" style="text;strokeColor=none;fillColor=#FAEBD7;align=center;verticalAlign=middle;spacingLeft=4;spacingRight=4;overflow=hidden;rotatable=0;points=[[0,0.5],[1,0.5]];portConstraint=eastwest;whiteSpace=wrap;html=1;" parent="RnKuT3CLdtK3t2uk2Y4t-19" vertex="1">
          <mxGeometry y="26" width="110" height="134" as="geometry" />
        </mxCell>
        <mxCell id="RnKuT3CLdtK3t2uk2Y4t-21" value="Carrefour Express" style="text;strokeColor=none;fillColor=#FAEBD7;align=center;verticalAlign=middle;spacingLeft=4;spacingRight=4;overflow=hidden;rotatable=0;points=[[0,0.5],[1,0.5]];portConstraint=eastwest;whiteSpace=wrap;html=1;" parent="RnKuT3CLdtK3t2uk2Y4t-19" vertex="1">
          <mxGeometry y="160" width="110" height="90" as="geometry" />
        </mxCell>
        <mxCell id="RnKuT3CLdtK3t2uk2Y4t-22" value="City of Genova" style="text;strokeColor=none;fillColor=#FAEBD7;align=center;verticalAlign=middle;spacingLeft=4;spacingRight=4;overflow=hidden;rotatable=0;points=[[0,0.5],[1,0.5]];portConstraint=eastwest;whiteSpace=wrap;html=1;" parent="RnKuT3CLdtK3t2uk2Y4t-19" vertex="1">
          <mxGeometry y="250" width="110" height="30" as="geometry" />
        </mxCell>
        <mxCell id="RnKuT3CLdtK3t2uk2Y4t-30" value="&lt;b&gt;&lt;font color=&quot;#ffffff&quot;&gt;CUSTOMER&lt;/font&gt;&lt;/b&gt;" style="swimlane;fontStyle=0;childLayout=stackLayout;horizontal=1;startSize=26;fillColor=#29425F;horizontalStack=0;resizeParent=1;resizeParentMax=0;resizeLast=0;collapsible=1;marginBottom=0;whiteSpace=wrap;html=1;strokeColor=none;" parent="1" vertex="1">
          <mxGeometry x="970" y="40" width="70" height="280" as="geometry" />
        </mxCell>
        <mxCell id="RnKuT3CLdtK3t2uk2Y4t-31" value="Friends" style="text;strokeColor=none;fillColor=#FAEBD7;align=center;verticalAlign=middle;spacingLeft=4;spacingRight=4;overflow=hidden;rotatable=0;points=[[0,0.5],[1,0.5]];portConstraint=eastwest;whiteSpace=wrap;html=1;" parent="RnKuT3CLdtK3t2uk2Y4t-30" vertex="1">
          <mxGeometry y="26" width="70" height="54" as="geometry" />
        </mxCell>
        <mxCell id="RnKuT3CLdtK3t2uk2Y4t-32" value="Colleagues" style="text;strokeColor=none;fillColor=#FAEBD7;align=center;verticalAlign=middle;spacingLeft=4;spacingRight=4;overflow=hidden;rotatable=0;points=[[0,0.5],[1,0.5]];portConstraint=eastwest;whiteSpace=wrap;html=1;" parent="RnKuT3CLdtK3t2uk2Y4t-30" vertex="1">
          <mxGeometry y="80" width="70" height="50" as="geometry" />
        </mxCell>
        <mxCell id="RnKuT3CLdtK3t2uk2Y4t-33" value="Organic waste bin" style="text;strokeColor=none;fillColor=#FAEBD7;align=center;verticalAlign=middle;spacingLeft=4;spacingRight=4;overflow=hidden;rotatable=0;points=[[0,0.5],[1,0.5]];portConstraint=eastwest;whiteSpace=wrap;html=1;" parent="RnKuT3CLdtK3t2uk2Y4t-30" vertex="1">
          <mxGeometry y="130" width="70" height="80" as="geometry" />
        </mxCell>
        <mxCell id="rHL3GPA1HStZm2Ger8QX-22" value="Regular waste bin" style="text;strokeColor=none;fillColor=#FAEBD7;align=center;verticalAlign=middle;spacingLeft=4;spacingRight=4;overflow=hidden;rotatable=0;points=[[0,0.5],[1,0.5]];portConstraint=eastwest;whiteSpace=wrap;html=1;" parent="RnKuT3CLdtK3t2uk2Y4t-30" vertex="1">
          <mxGeometry y="210" width="70" height="70" as="geometry" />
        </mxCell>
        <mxCell id="rHL3GPA1HStZm2Ger8QX-2" style="edgeStyle=orthogonalEdgeStyle;rounded=0;orthogonalLoop=1;jettySize=auto;html=1;" parent="1" source="RnKuT3CLdtK3t2uk2Y4t-21" target="RnKuT3CLdtK3t2uk2Y4t-40" edge="1">
          <mxGeometry relative="1" as="geometry" />
        </mxCell>
        <mxCell id="rHL3GPA1HStZm2Ger8QX-3" style="edgeStyle=orthogonalEdgeStyle;rounded=0;orthogonalLoop=1;jettySize=auto;html=1;" parent="1" source="RnKuT3CLdtK3t2uk2Y4t-21" target="RnKuT3CLdtK3t2uk2Y4t-39" edge="1">
          <mxGeometry relative="1" as="geometry" />
        </mxCell>
        <mxCell id="rHL3GPA1HStZm2Ger8QX-4" style="edgeStyle=orthogonalEdgeStyle;rounded=0;orthogonalLoop=1;jettySize=auto;html=1;entryX=0;entryY=0.5;entryDx=0;entryDy=0;" parent="1" source="RnKuT3CLdtK3t2uk2Y4t-21" target="RnKuT3CLdtK3t2uk2Y4t-38" edge="1">
          <mxGeometry relative="1" as="geometry" />
        </mxCell>
        <mxCell id="rHL3GPA1HStZm2Ger8QX-6" style="edgeStyle=orthogonalEdgeStyle;rounded=0;orthogonalLoop=1;jettySize=auto;html=1;" parent="1" source="RnKuT3CLdtK3t2uk2Y4t-20" target="RnKuT3CLdtK3t2uk2Y4t-12" edge="1">
          <mxGeometry relative="1" as="geometry">
            <Array as="points">
              <mxPoint x="178" y="133" />
              <mxPoint x="178" y="79" />
            </Array>
          </mxGeometry>
        </mxCell>
        <mxCell id="rHL3GPA1HStZm2Ger8QX-7" style="edgeStyle=orthogonalEdgeStyle;rounded=0;orthogonalLoop=1;jettySize=auto;html=1;" parent="1" source="RnKuT3CLdtK3t2uk2Y4t-20" target="RnKuT3CLdtK3t2uk2Y4t-13" edge="1">
          <mxGeometry relative="1" as="geometry">
            <Array as="points">
              <mxPoint x="178" y="133" />
              <mxPoint x="178" y="105" />
            </Array>
          </mxGeometry>
        </mxCell>
        <mxCell id="rHL3GPA1HStZm2Ger8QX-8" style="edgeStyle=orthogonalEdgeStyle;rounded=0;orthogonalLoop=1;jettySize=auto;html=1;" parent="1" source="RnKuT3CLdtK3t2uk2Y4t-20" target="RnKuT3CLdtK3t2uk2Y4t-14" edge="1">
          <mxGeometry relative="1" as="geometry" />
        </mxCell>
        <mxCell id="rHL3GPA1HStZm2Ger8QX-9" style="edgeStyle=orthogonalEdgeStyle;rounded=0;orthogonalLoop=1;jettySize=auto;html=1;" parent="1" source="RnKuT3CLdtK3t2uk2Y4t-20" target="RnKuT3CLdtK3t2uk2Y4t-15" edge="1">
          <mxGeometry relative="1" as="geometry">
            <Array as="points">
              <mxPoint x="178" y="133" />
              <mxPoint x="178" y="157" />
            </Array>
          </mxGeometry>
        </mxCell>
        <mxCell id="rHL3GPA1HStZm2Ger8QX-10" style="edgeStyle=orthogonalEdgeStyle;rounded=0;orthogonalLoop=1;jettySize=auto;html=1;" parent="1" source="RnKuT3CLdtK3t2uk2Y4t-20" target="RnKuT3CLdtK3t2uk2Y4t-16" edge="1">
          <mxGeometry relative="1" as="geometry">
            <Array as="points">
              <mxPoint x="178" y="133" />
              <mxPoint x="178" y="185" />
            </Array>
          </mxGeometry>
        </mxCell>
        <mxCell id="rHL3GPA1HStZm2Ger8QX-11" style="edgeStyle=orthogonalEdgeStyle;rounded=0;orthogonalLoop=1;jettySize=auto;html=1;" parent="1" source="RnKuT3CLdtK3t2uk2Y4t-22" target="RnKuT3CLdtK3t2uk2Y4t-41" edge="1">
          <mxGeometry relative="1" as="geometry" />
        </mxCell>
        <mxCell id="rHL3GPA1HStZm2Ger8QX-19" style="edgeStyle=orthogonalEdgeStyle;rounded=0;orthogonalLoop=1;jettySize=auto;html=1;" parent="1" source="cieGOvbksCEgO7fDW6tM-35" target="RnKuT3CLdtK3t2uk2Y4t-17" edge="1">
          <mxGeometry relative="1" as="geometry" />
        </mxCell>
        <mxCell id="rHL3GPA1HStZm2Ger8QX-23" style="edgeStyle=orthogonalEdgeStyle;rounded=0;orthogonalLoop=1;jettySize=auto;html=1;" parent="1" source="rHL3GPA1HStZm2Ger8QX-16" target="RnKuT3CLdtK3t2uk2Y4t-31" edge="1">
          <mxGeometry relative="1" as="geometry">
            <Array as="points">
              <mxPoint x="950" y="113" />
              <mxPoint x="950" y="98" />
            </Array>
          </mxGeometry>
        </mxCell>
        <mxCell id="rHL3GPA1HStZm2Ger8QX-24" style="edgeStyle=orthogonalEdgeStyle;rounded=0;orthogonalLoop=1;jettySize=auto;html=1;" parent="1" source="rHL3GPA1HStZm2Ger8QX-16" target="RnKuT3CLdtK3t2uk2Y4t-32" edge="1">
          <mxGeometry relative="1" as="geometry">
            <Array as="points">
              <mxPoint x="950" y="113" />
              <mxPoint x="950" y="140" />
            </Array>
          </mxGeometry>
        </mxCell>
        <mxCell id="rHL3GPA1HStZm2Ger8QX-25" style="edgeStyle=orthogonalEdgeStyle;rounded=0;orthogonalLoop=1;jettySize=auto;html=1;entryX=0;entryY=0.5;entryDx=0;entryDy=0;" parent="1" source="rHL3GPA1HStZm2Ger8QX-17" target="RnKuT3CLdtK3t2uk2Y4t-33" edge="1">
          <mxGeometry relative="1" as="geometry" />
        </mxCell>
        <mxCell id="rHL3GPA1HStZm2Ger8QX-26" style="edgeStyle=orthogonalEdgeStyle;rounded=0;orthogonalLoop=1;jettySize=auto;html=1;" parent="1" source="rHL3GPA1HStZm2Ger8QX-18" target="rHL3GPA1HStZm2Ger8QX-22" edge="1">
          <mxGeometry relative="1" as="geometry" />
        </mxCell>
      </root>
    </mxGraphModel>
  </diagram>
</mxfile>
